<svg width="1200" height="630" viewBox="0 0 1200 630" fill="none" xmlns="http://www.w3.org/2000/svg" role="img" aria-labelledby="title desc">
  <title id="title">Apercu de partage du portfolio de Theo BORTOLOTTO</title>
  <desc id="desc">Carte de partage sombre avec le nom, le role et les axes principaux du portfolio.</desc>
  <defs>
    <linearGradient id="bg" x1="0" y1="0" x2="1200" y2="630" gradientUnits="userSpaceOnUse">
      <stop stop-color="#11161A"/>
      <stop offset="0.52" stop-color="#151B20"/>
      <stop offset="1" stop-color="#0D1115"/>
    </linearGradient>
    <linearGradient id="accent" x1="94" y1="84" x2="1018" y2="536" gradientUnits="userSpaceOnUse">
      <stop stop-color="#74CBBB"/>
      <stop offset="0.42" stop-color="#8FB7FF"/>
      <stop offset="0.72" stop-color="#E0B05D"/>
      <stop offset="1" stop-color="#FF9288"/>
    </linearGradient>
    <linearGradient id="card" x1="0" y1="0" x2="1" y2="1">
      <stop stop-color="#1D252B"/>
      <stop offset="1" stop-color="#151B20"/>
    </linearGradient>
    <filter id="shadow" x="-20%" y="-20%" width="140%" height="140%" color-interpolation-filters="sRGB">
      <feDropShadow dx="0" dy="26" stdDeviation="34" flood-color="#000000" flood-opacity="0.32"/>
    </filter>
  </defs>

  <rect width="1200" height="630" fill="url(#bg)"/>
  <g opacity="0.42">
    <path d="M0 78H1200" stroke="#F2F4F1" stroke-opacity="0.08"/>
    <path d="M0 178H1200" stroke="#F2F4F1" stroke-opacity="0.08"/>
    <path d="M0 278H1200" stroke="#F2F4F1" stroke-opacity="0.08"/>
    <path d="M0 378H1200" stroke="#F2F4F1" stroke-opacity="0.08"/>
    <path d="M0 478H1200" stroke="#F2F4F1" stroke-opacity="0.08"/>
    <path d="M0 578H1200" stroke="#F2F4F1" stroke-opacity="0.08"/>
    <path d="M112 0V630" stroke="#F2F4F1" stroke-opacity="0.08"/>
    <path d="M252 0V630" stroke="#F2F4F1" stroke-opacity="0.08"/>
    <path d="M392 0V630" stroke="#F2F4F1" stroke-opacity="0.08"/>
    <path d="M532 0V630" stroke="#F2F4F1" stroke-opacity="0.08"/>
    <path d="M672 0V630" stroke="#F2F4F1" stroke-opacity="0.08"/>
    <path d="M812 0V630" stroke="#F2F4F1" stroke-opacity="0.08"/>
    <path d="M952 0V630" stroke="#F2F4F1" stroke-opacity="0.08"/>
    <path d="M1092 0V630" stroke="#F2F4F1" stroke-opacity="0.08"/>
  </g>
  <path d="M-58 552C120 414 214 256 346 0" stroke="#74CBBB" stroke-opacity="0.09" stroke-width="28"/>
  <path d="M628 655C748 430 874 238 1138 -34" stroke="#8FB7FF" stroke-opacity="0.08" stroke-width="10"/>
  <path d="M84 520H1116" stroke="url(#accent)" stroke-opacity="0.72"/>

  <g filter="url(#shadow)">
    <rect x="82" y="84" width="1036" height="444" rx="8" fill="#151B20" stroke="#344047"/>
    <rect x="82" y="84" width="1036" height="5" rx="2.5" fill="url(#accent)"/>
    <rect x="112" y="114" width="76" height="76" rx="8" fill="#10161B" stroke="#46545D"/>
    <text x="150" y="162" text-anchor="middle" fill="#A1E3D7" font-family="Inter, Segoe UI, Arial, sans-serif" font-size="27" font-weight="800">TB</text>

    <text x="112" y="253" fill="#CFF7ED" font-family="Inter, Segoe UI, Arial, sans-serif" font-size="78" font-weight="850">Théo</text>
    <text x="112" y="333" fill="#F2F4F1" font-family="Inter, Segoe UI, Arial, sans-serif" font-size="78" font-weight="850">BORTOLOTTO</text>
    <text x="116" y="386" fill="#D4DDE2" font-family="Inter, Segoe UI, Arial, sans-serif" font-size="34" font-weight="760">Administrateur Systèmes &amp; Réseaux</text>
    <text x="116" y="431" fill="#ABB6BD" font-family="Inter, Segoe UI, Arial, sans-serif" font-size="23" font-weight="620">Infrastructure · Réseau · Cybersécurité · Gestion de projet</text>

    <g transform="translate(115 466)">
      <rect width="142" height="38" rx="19" fill="#1B302F" stroke="#5EBFAF"/>
      <text x="71" y="25" text-anchor="middle" fill="#CFF7ED" font-family="Inter, Segoe UI, Arial, sans-serif" font-size="16" font-weight="760">Cisco</text>
      <rect x="158" width="132" height="38" rx="19" fill="#232C34" stroke="#8FB7FF" stroke-opacity="0.55"/>
      <text x="224" y="25" text-anchor="middle" fill="#D7E5FF" font-family="Inter, Segoe UI, Arial, sans-serif" font-size="16" font-weight="760">Microsoft 365</text>
      <rect x="306" width="120" height="38" rx="19" fill="#302A1B" stroke="#E0B05D" stroke-opacity="0.65"/>
      <text x="366" y="25" text-anchor="middle" fill="#FFE5AF" font-family="Inter, Segoe UI, Arial, sans-serif" font-size="16" font-weight="760">PMP</text>
      <rect x="442" width="138" height="38" rx="19" fill="#2F2021" stroke="#FF9288" stroke-opacity="0.65"/>
      <text x="511" y="25" text-anchor="middle" fill="#FFD4D0" font-family="Inter, Segoe UI, Arial, sans-serif" font-size="16" font-weight="760">EBIOS RM</text>
    </g>

    <g transform="translate(740 138)">
      <rect width="326" height="338" rx="8" fill="url(#card)" stroke="#344047"/>
      <text x="26" y="50" fill="#E0B05D" font-family="Inter, Segoe UI, Arial, sans-serif" font-size="18" font-weight="850">PORTFOLIO</text>
      <text x="254" y="50" fill="#E0B05D" font-family="Inter, Segoe UI, Arial, sans-serif" font-size="18" font-weight="850">2026</text>
      <rect x="26" y="82" width="274" height="74" rx="8" fill="#10161B" stroke="#46545D"/>
      <text x="50" y="115" fill="#A1E3D7" font-family="Inter, Segoe UI, Arial, sans-serif" font-size="18" font-weight="850">5 ans</text>
      <text x="50" y="138" fill="#ABB6BD" font-family="Inter, Segoe UI, Arial, sans-serif" font-size="15" font-weight="650">alternance IT</text>
      <rect x="26" y="172" width="128" height="118" rx="8" fill="#10161B" stroke="#46545D"/>
      <rect x="172" y="172" width="128" height="118" rx="8" fill="#10161B" stroke="#46545D"/>
      <text x="48" y="207" fill="#F2F4F1" font-family="Inter, Segoe UI, Arial, sans-serif" font-size="16" font-weight="800">Technique</text>
      <text x="194" y="207" fill="#F2F4F1" font-family="Inter, Segoe UI, Arial, sans-serif" font-size="16" font-weight="800">Pilotage</text>
      <path d="M52 238H126" stroke="#74CBBB" stroke-width="8" stroke-linecap="round"/>
      <path d="M52 260H108" stroke="#8FB7FF" stroke-width="8" stroke-linecap="round"/>
      <path d="M198 238H272" stroke="#E0B05D" stroke-width="8" stroke-linecap="round"/>
      <path d="M198 260H246" stroke="#FF9288" stroke-width="8" stroke-linecap="round"/>
      <rect x="26" y="306" width="274" height="1" fill="#46545D"/>
      <text x="26" y="330" fill="#ABB6BD" font-family="Inter, Segoe UI, Arial, sans-serif" font-size="15" font-weight="650">Disponible octobre 2026</text>
    </g>
  </g>
</svg>
